<mxfile host="app.diagrams.net" modified="2024-04-09T16:45:25.005Z" agent="Mozilla/5.0 (Windows NT 10.0; Win64; x64) AppleWebKit/537.36 (KHTML, like Gecko) Chrome/123.0.0.0 Safari/537.36" etag="j1KOpdLqTqmGi7J-EEP8" version="24.2.2" type="device">
  <diagram name="Page-1" id="929967ad-93f9-6ef4-fab6-5d389245f69c">
    <mxGraphModel dx="2049" dy="1103" grid="1" gridSize="10" guides="1" tooltips="1" connect="1" arrows="1" fold="1" page="1" pageScale="1.5" pageWidth="1169" pageHeight="826" background="none" math="0" shadow="0">
      <root>
        <mxCell id="0" style=";html=1;" />
        <mxCell id="1" style=";html=1;" parent="0" />
        <mxCell id="1672d66443f91eb5-23" value="GaÃ¡l Botond - NHF Terv" style="text;strokeColor=none;fillColor=none;html=1;fontSize=24;fontStyle=1;verticalAlign=middle;align=center;" parent="1" vertex="1">
          <mxGeometry x="122" y="130" width="1510" height="40" as="geometry" />
        </mxCell>
        <mxCell id="ww80NGI2TLnyyEXgtIBK-16" value="&lt;i&gt;StringBase&lt;/i&gt;" style="swimlane;fontStyle=1;align=center;verticalAlign=top;childLayout=stackLayout;horizontal=1;startSize=26;horizontalStack=0;resizeParent=1;resizeParentMax=0;resizeLast=0;collapsible=1;marginBottom=0;whiteSpace=wrap;html=1;" parent="1" vertex="1">
          <mxGeometry x="792" y="190" width="340" height="260" as="geometry">
            <mxRectangle x="540" y="720" width="100" height="30" as="alternateBounds" />
          </mxGeometry>
        </mxCell>
        <mxCell id="ww80NGI2TLnyyEXgtIBK-17" value="# len: size_t&lt;div&gt;# str: char*&lt;/div&gt;" style="text;strokeColor=none;fillColor=none;align=left;verticalAlign=top;spacingLeft=4;spacingRight=4;overflow=hidden;rotatable=0;points=[[0,0.5],[1,0.5]];portConstraint=eastwest;whiteSpace=wrap;html=1;" parent="ww80NGI2TLnyyEXgtIBK-16" vertex="1">
          <mxGeometry y="26" width="340" height="34" as="geometry" />
        </mxCell>
        <mxCell id="ww80NGI2TLnyyEXgtIBK-18" value="" style="line;strokeWidth=1;fillColor=none;align=left;verticalAlign=middle;spacingTop=-1;spacingLeft=3;spacingRight=3;rotatable=0;labelPosition=right;points=[];portConstraint=eastwest;strokeColor=inherit;" parent="ww80NGI2TLnyyEXgtIBK-16" vertex="1">
          <mxGeometry y="60" width="340" height="8" as="geometry" />
        </mxCell>
        <mxCell id="ww80NGI2TLnyyEXgtIBK-19" value="+ get_len(): size_t&amp;nbsp;&lt;div&gt;+ c_str(): const char*&amp;nbsp;&lt;/div&gt;&lt;div&gt;+ ~StringBase() &amp;lt;&amp;lt;virtual&amp;gt;&amp;gt;&lt;/div&gt;&lt;div&gt;+ StringBase(const char* str = &quot;&quot;)&lt;/div&gt;&lt;div&gt;+ StringBase(const char c)&lt;/div&gt;&lt;div&gt;+ StringBase(const StringBase&amp;amp; other)&lt;/div&gt;&lt;div&gt;+ operator[](const size_t idx): char&amp;amp;&lt;/div&gt;&lt;div&gt;+ operator[](const size_t idx): const char&amp;amp;&amp;nbsp;&lt;/div&gt;&lt;div&gt;&lt;span style=&quot;background-color: initial;&quot;&gt;+ operator==(const StringBase&amp;amp; rhs): bool&amp;nbsp;&lt;/span&gt;&lt;/div&gt;&lt;div&gt;&lt;div&gt;+ operator!=(const StringBase&amp;amp; rhs): bool&amp;nbsp;&lt;/div&gt;&lt;/div&gt;&lt;div&gt;+ begin(): iterator&lt;/div&gt;&lt;div&gt;&lt;span style=&quot;background-color: initial;&quot;&gt;+ end(): iterator&lt;/span&gt;&lt;/div&gt;&lt;div&gt;&lt;br&gt;&lt;/div&gt;" style="text;strokeColor=none;fillColor=none;align=left;verticalAlign=top;spacingLeft=4;spacingRight=4;overflow=hidden;rotatable=0;points=[[0,0.5],[1,0.5]];portConstraint=eastwest;whiteSpace=wrap;html=1;" parent="ww80NGI2TLnyyEXgtIBK-16" vertex="1">
          <mxGeometry y="68" width="340" height="192" as="geometry" />
        </mxCell>
        <mxCell id="ww80NGI2TLnyyEXgtIBK-21" value="StringBase::iterator" style="swimlane;fontStyle=1;align=center;verticalAlign=top;childLayout=stackLayout;horizontal=1;startSize=26;horizontalStack=0;resizeParent=1;resizeParentMax=0;resizeLast=0;collapsible=1;marginBottom=0;whiteSpace=wrap;html=1;" parent="1" vertex="1">
          <mxGeometry x="1182" y="330" width="220" height="150" as="geometry" />
        </mxCell>
        <mxCell id="ww80NGI2TLnyyEXgtIBK-22" value="- ptr: char*" style="text;strokeColor=none;fillColor=none;align=left;verticalAlign=top;spacingLeft=4;spacingRight=4;overflow=hidden;rotatable=0;points=[[0,0.5],[1,0.5]];portConstraint=eastwest;whiteSpace=wrap;html=1;" parent="ww80NGI2TLnyyEXgtIBK-21" vertex="1">
          <mxGeometry y="26" width="220" height="26" as="geometry" />
        </mxCell>
        <mxCell id="ww80NGI2TLnyyEXgtIBK-23" value="" style="line;strokeWidth=1;fillColor=none;align=left;verticalAlign=middle;spacingTop=-1;spacingLeft=3;spacingRight=3;rotatable=0;labelPosition=right;points=[];portConstraint=eastwest;strokeColor=inherit;" parent="ww80NGI2TLnyyEXgtIBK-21" vertex="1">
          <mxGeometry y="52" width="220" height="8" as="geometry" />
        </mxCell>
        <mxCell id="ww80NGI2TLnyyEXgtIBK-24" value="+ iterator(char* ptr = NULL)&lt;div&gt;+ operator++(): iterator&amp;amp;&lt;/div&gt;&lt;div&gt;&lt;span style=&quot;background-color: initial;&quot;&gt;+ operator*(): char&amp;amp;&amp;nbsp;&lt;/span&gt;&lt;/div&gt;&lt;div&gt;+ operator==(const iterator&amp;amp; rhs): bool&amp;nbsp;&lt;/div&gt;&lt;div&gt;+ operator!=(const iterator&amp;amp; rhs): bool&amp;nbsp;&lt;/div&gt;" style="text;strokeColor=none;fillColor=none;align=left;verticalAlign=top;spacingLeft=4;spacingRight=4;overflow=hidden;rotatable=0;points=[[0,0.5],[1,0.5]];portConstraint=eastwest;whiteSpace=wrap;html=1;" parent="ww80NGI2TLnyyEXgtIBK-21" vertex="1">
          <mxGeometry y="60" width="220" height="90" as="geometry" />
        </mxCell>
        <mxCell id="ww80NGI2TLnyyEXgtIBK-32" value="&lt;p style=&quot;margin:0px;margin-top:4px;text-align:center;&quot;&gt;&lt;b&gt;String&lt;/b&gt;&lt;/p&gt;&lt;hr size=&quot;1&quot; style=&quot;border-style:solid;&quot;&gt;&lt;p style=&quot;margin:0px;margin-left:4px;&quot;&gt;&lt;/p&gt;&lt;p style=&quot;margin:0px;margin-left:4px;&quot;&gt;+ String(const char* str = &quot;&quot;)&lt;/p&gt;&lt;p style=&quot;margin:0px;margin-left:4px;&quot;&gt;+ String(const char&amp;nbsp; c)&lt;/p&gt;&lt;p style=&quot;margin:0px;margin-left:4px;&quot;&gt;+ String(const StringBase&amp;amp; other)&lt;/p&gt;&lt;p style=&quot;margin:0px;margin-left:4px;&quot;&gt;&lt;span style=&quot;background-color: initial;&quot;&gt;+ operator=(const char rhs): String&amp;amp;&lt;/span&gt;&lt;br&gt;&lt;/p&gt;&lt;p style=&quot;margin:0px;margin-left:4px;&quot;&gt;+ operator=(const char* rhs): String&amp;amp;&lt;br&gt;&lt;/p&gt;&lt;p style=&quot;margin:0px;margin-left:4px;&quot;&gt;+ operator=(const StringBase&amp;amp; rhs): String&amp;amp;&lt;br&gt;&lt;/p&gt;&lt;p style=&quot;margin:0px;margin-left:4px;&quot;&gt;+ operator=(const String&amp;amp; rhs): String&amp;amp;&lt;/p&gt;&lt;p style=&quot;margin:0px;margin-left:4px;&quot;&gt;+ operator+(const String&amp;amp; rhs): String&amp;nbsp;&lt;/p&gt;&lt;p style=&quot;margin:0px;margin-left:4px;&quot;&gt;+ operator+=(const String&amp;amp; rhs): String&amp;amp;&lt;/p&gt;" style="verticalAlign=top;align=left;overflow=fill;html=1;whiteSpace=wrap;" parent="1" vertex="1">
          <mxGeometry x="1132" y="510" width="270" height="180" as="geometry" />
        </mxCell>
        <mxCell id="ww80NGI2TLnyyEXgtIBK-33" value="" style="endArrow=block;dashed=1;endFill=0;endSize=12;html=1;rounded=0;" parent="1" source="ww80NGI2TLnyyEXgtIBK-32" target="ww80NGI2TLnyyEXgtIBK-19" edge="1">
          <mxGeometry width="160" relative="1" as="geometry">
            <mxPoint x="792" y="940" as="sourcePoint" />
            <mxPoint x="952" y="940" as="targetPoint" />
          </mxGeometry>
        </mxCell>
        <mxCell id="ww80NGI2TLnyyEXgtIBK-25" value="" style="endArrow=open;startArrow=circlePlus;endFill=0;startFill=0;endSize=8;html=1;rounded=0;" parent="1" source="ww80NGI2TLnyyEXgtIBK-24" target="ww80NGI2TLnyyEXgtIBK-19" edge="1">
          <mxGeometry width="160" relative="1" as="geometry">
            <mxPoint x="1252" y="572" as="sourcePoint" />
            <mxPoint x="1172" y="670" as="targetPoint" />
          </mxGeometry>
        </mxCell>
        <mxCell id="ww80NGI2TLnyyEXgtIBK-35" value="EncryptedString" style="swimlane;fontStyle=1;align=center;verticalAlign=top;childLayout=stackLayout;horizontal=1;startSize=26;horizontalStack=0;resizeParent=1;resizeParentMax=0;resizeLast=0;collapsible=1;marginBottom=0;whiteSpace=wrap;html=1;" parent="1" vertex="1">
          <mxGeometry x="642" y="580" width="420" height="280" as="geometry" />
        </mxCell>
        <mxCell id="ww80NGI2TLnyyEXgtIBK-36" value="- pEncryptor: Encryptor*&lt;div&gt;- password: String&lt;/div&gt;" style="text;strokeColor=none;fillColor=none;align=left;verticalAlign=top;spacingLeft=4;spacingRight=4;overflow=hidden;rotatable=0;points=[[0,0.5],[1,0.5]];portConstraint=eastwest;whiteSpace=wrap;html=1;" parent="ww80NGI2TLnyyEXgtIBK-35" vertex="1">
          <mxGeometry y="26" width="420" height="44" as="geometry" />
        </mxCell>
        <mxCell id="ww80NGI2TLnyyEXgtIBK-37" value="" style="line;strokeWidth=1;fillColor=none;align=left;verticalAlign=middle;spacingTop=-1;spacingLeft=3;spacingRight=3;rotatable=0;labelPosition=right;points=[];portConstraint=eastwest;strokeColor=inherit;" parent="ww80NGI2TLnyyEXgtIBK-35" vertex="1">
          <mxGeometry y="70" width="420" height="8" as="geometry" />
        </mxCell>
        <mxCell id="ww80NGI2TLnyyEXgtIBK-38" value="&lt;div&gt;&lt;span style=&quot;background-color: initial;&quot;&gt;+ EncryptedString(Encryptor* pEncr, const String&amp;amp; pw, const char* str = &quot;&quot;)&lt;/span&gt;&lt;br&gt;&lt;/div&gt;&lt;div&gt;+ EncryptedString(Encryptor* pEncr, const String&amp;amp; pw, const char c)&lt;br&gt;&lt;/div&gt;&lt;div&gt;+ EncryptedString(Encryptor* pEncr, const String&amp;amp; pw, const String&amp;amp; str)&lt;br&gt;&lt;/div&gt;&lt;div&gt;+ EncryptedString(const EncryptedString&amp;amp; other)&lt;/div&gt;&lt;div&gt;+ ~EncryptedString()&lt;/div&gt;&lt;div&gt;+ operator=(const StringBase&amp;amp; rhs): EncryptedString&amp;amp;&lt;/div&gt;&lt;div&gt;+ operator=(const char* rhs): EncryptedString&amp;amp;&lt;/div&gt;&lt;div&gt;+ operator=(const char c): EncryptedString&amp;amp;&lt;/div&gt;&lt;div&gt;+ operator=(const EncryptedString&amp;amp; rhs): EncryptedString&amp;amp;&lt;/div&gt;&lt;div&gt;+ operator+=(const String&amp;amp; rhs): EncryptedString&amp;amp;&lt;/div&gt;&lt;div&gt;+ set_pw(const String&amp;amp; new_pw, const String&amp;amp; old_pw): void&lt;/div&gt;&lt;div&gt;+ decode(const String&amp;amp; pw): String&amp;nbsp;&lt;/div&gt;&lt;div&gt;&lt;span style=&quot;background-color: initial;&quot;&gt;+ setEncryptor(Encryptor* pEnc, const String&amp;amp; pw)&lt;/span&gt;&lt;/div&gt;&lt;div&gt;&lt;br&gt;&lt;/div&gt;&lt;div&gt;&lt;br&gt;&lt;/div&gt;" style="text;strokeColor=none;fillColor=none;align=left;verticalAlign=top;spacingLeft=4;spacingRight=4;overflow=hidden;rotatable=0;points=[[0,0.5],[1,0.5]];portConstraint=eastwest;whiteSpace=wrap;html=1;" parent="ww80NGI2TLnyyEXgtIBK-35" vertex="1">
          <mxGeometry y="78" width="420" height="202" as="geometry" />
        </mxCell>
        <mxCell id="ww80NGI2TLnyyEXgtIBK-39" value="" style="endArrow=block;dashed=1;endFill=0;endSize=12;html=1;rounded=0;" parent="1" source="ww80NGI2TLnyyEXgtIBK-35" target="ww80NGI2TLnyyEXgtIBK-19" edge="1">
          <mxGeometry width="160" relative="1" as="geometry">
            <mxPoint x="872" y="920" as="sourcePoint" />
            <mxPoint x="1032" y="920" as="targetPoint" />
          </mxGeometry>
        </mxCell>
        <mxCell id="ww80NGI2TLnyyEXgtIBK-40" value="&lt;i&gt;Encryptor&lt;/i&gt;" style="swimlane;fontStyle=1;align=center;verticalAlign=top;childLayout=stackLayout;horizontal=1;startSize=26;horizontalStack=0;resizeParent=1;resizeParentMax=0;resizeLast=0;collapsible=1;marginBottom=0;whiteSpace=wrap;html=1;" parent="1" vertex="1">
          <mxGeometry x="352" y="220" width="250" height="150" as="geometry" />
        </mxCell>
        <mxCell id="ww80NGI2TLnyyEXgtIBK-41" value="&lt;u&gt;# first_char: char&lt;/u&gt;&lt;div&gt;&lt;u&gt;# last_char: char&lt;/u&gt;&lt;/div&gt;" style="text;strokeColor=none;fillColor=none;align=left;verticalAlign=top;spacingLeft=4;spacingRight=4;overflow=hidden;rotatable=0;points=[[0,0.5],[1,0.5]];portConstraint=eastwest;whiteSpace=wrap;html=1;" parent="ww80NGI2TLnyyEXgtIBK-40" vertex="1">
          <mxGeometry y="26" width="250" height="44" as="geometry" />
        </mxCell>
        <mxCell id="ww80NGI2TLnyyEXgtIBK-42" value="" style="line;strokeWidth=1;fillColor=none;align=left;verticalAlign=middle;spacingTop=-1;spacingLeft=3;spacingRight=3;rotatable=0;labelPosition=right;points=[];portConstraint=eastwest;strokeColor=inherit;" parent="ww80NGI2TLnyyEXgtIBK-40" vertex="1">
          <mxGeometry y="70" width="250" height="8" as="geometry" />
        </mxCell>
        <mxCell id="ww80NGI2TLnyyEXgtIBK-43" value="&lt;i&gt;+ encode(char c): char = 0 &amp;lt;&amp;lt;virtual&amp;gt;&amp;gt;&lt;/i&gt;&lt;div&gt;&lt;i&gt;+ decode(char c): char = 0 &amp;lt;&amp;lt;virtual&amp;gt;&amp;gt;&lt;br&gt;&lt;/i&gt;&lt;/div&gt;&lt;div&gt;&lt;i&gt;+ clone(): Encryptor* = 0 &amp;lt;&amp;lt;virtual&amp;gt;&amp;gt;&lt;/i&gt;&lt;/div&gt;&lt;div&gt;&lt;i&gt;+ cloneInverse(): Encryptor* = 0 &amp;lt;&amp;lt;virtual&amp;gt;&amp;gt;&lt;/i&gt;&lt;/div&gt;" style="text;strokeColor=none;fillColor=none;align=left;verticalAlign=top;spacingLeft=4;spacingRight=4;overflow=hidden;rotatable=0;points=[[0,0.5],[1,0.5]];portConstraint=eastwest;whiteSpace=wrap;html=1;" parent="ww80NGI2TLnyyEXgtIBK-40" vertex="1">
          <mxGeometry y="78" width="250" height="72" as="geometry" />
        </mxCell>
        <mxCell id="ww80NGI2TLnyyEXgtIBK-48" value="MyEncryptor" style="swimlane;fontStyle=1;align=center;verticalAlign=top;childLayout=stackLayout;horizontal=1;startSize=26;horizontalStack=0;resizeParent=1;resizeParentMax=0;resizeLast=0;collapsible=1;marginBottom=0;whiteSpace=wrap;html=1;" parent="1" vertex="1">
          <mxGeometry x="532" y="420" width="160" height="130" as="geometry" />
        </mxCell>
        <mxCell id="ww80NGI2TLnyyEXgtIBK-49" value="- key" style="text;strokeColor=none;fillColor=none;align=left;verticalAlign=top;spacingLeft=4;spacingRight=4;overflow=hidden;rotatable=0;points=[[0,0.5],[1,0.5]];portConstraint=eastwest;whiteSpace=wrap;html=1;" parent="ww80NGI2TLnyyEXgtIBK-48" vertex="1">
          <mxGeometry y="26" width="160" height="26" as="geometry" />
        </mxCell>
        <mxCell id="ww80NGI2TLnyyEXgtIBK-50" value="" style="line;strokeWidth=1;fillColor=none;align=left;verticalAlign=middle;spacingTop=-1;spacingLeft=3;spacingRight=3;rotatable=0;labelPosition=right;points=[];portConstraint=eastwest;strokeColor=inherit;" parent="ww80NGI2TLnyyEXgtIBK-48" vertex="1">
          <mxGeometry y="52" width="160" height="8" as="geometry" />
        </mxCell>
        <mxCell id="ww80NGI2TLnyyEXgtIBK-51" value="&lt;div&gt;&lt;span style=&quot;background-color: initial;&quot;&gt;+ encode(char c): char&lt;/span&gt;&lt;br&gt;&lt;/div&gt;&lt;div&gt;+ decode(char c): char&amp;nbsp;&lt;/div&gt;&lt;div&gt;+ clone(): Encryptor*&lt;/div&gt;&lt;div&gt;+ cloneInverse: Encryptor*&amp;nbsp;&lt;/div&gt;" style="text;strokeColor=none;fillColor=none;align=left;verticalAlign=top;spacingLeft=4;spacingRight=4;overflow=hidden;rotatable=0;points=[[0,0.5],[1,0.5]];portConstraint=eastwest;whiteSpace=wrap;html=1;" parent="ww80NGI2TLnyyEXgtIBK-48" vertex="1">
          <mxGeometry y="60" width="160" height="70" as="geometry" />
        </mxCell>
        <mxCell id="ww80NGI2TLnyyEXgtIBK-52" value="" style="endArrow=block;dashed=1;endFill=0;endSize=12;html=1;rounded=0;exitX=0.399;exitY=0.033;exitDx=0;exitDy=0;exitPerimeter=0;" parent="1" source="ww80NGI2TLnyyEXgtIBK-48" target="ww80NGI2TLnyyEXgtIBK-43" edge="1">
          <mxGeometry width="160" relative="1" as="geometry">
            <mxPoint x="132" y="658.6" as="sourcePoint" />
            <mxPoint x="292" y="658.6" as="targetPoint" />
          </mxGeometry>
        </mxCell>
        <mxCell id="ww80NGI2TLnyyEXgtIBK-58" value="EncryptorList" style="swimlane;fontStyle=1;align=center;verticalAlign=top;childLayout=stackLayout;horizontal=1;startSize=26;horizontalStack=0;resizeParent=1;resizeParentMax=0;resizeLast=0;collapsible=1;marginBottom=0;whiteSpace=wrap;html=1;" parent="1" vertex="1">
          <mxGeometry x="352" y="580" width="250" height="200" as="geometry" />
        </mxCell>
        <mxCell id="ww80NGI2TLnyyEXgtIBK-59" value="- head: Node*&lt;div&gt;- tail: Node*&lt;/div&gt;" style="text;strokeColor=none;fillColor=none;align=left;verticalAlign=top;spacingLeft=4;spacingRight=4;overflow=hidden;rotatable=0;points=[[0,0.5],[1,0.5]];portConstraint=eastwest;whiteSpace=wrap;html=1;" parent="ww80NGI2TLnyyEXgtIBK-58" vertex="1">
          <mxGeometry y="26" width="250" height="34" as="geometry" />
        </mxCell>
        <mxCell id="ww80NGI2TLnyyEXgtIBK-60" value="" style="line;strokeWidth=1;fillColor=none;align=left;verticalAlign=middle;spacingTop=-1;spacingLeft=3;spacingRight=3;rotatable=0;labelPosition=right;points=[];portConstraint=eastwest;strokeColor=inherit;" parent="ww80NGI2TLnyyEXgtIBK-58" vertex="1">
          <mxGeometry y="60" width="250" height="8" as="geometry" />
        </mxCell>
        <mxCell id="ww80NGI2TLnyyEXgtIBK-61" value="+ EncryptorList()&lt;div&gt;+ EncryptorList(const EncryptorList&amp;amp; other)&lt;/div&gt;&lt;div&gt;+ ~EncryptorList()&lt;/div&gt;&lt;div&gt;&lt;span style=&quot;background-color: initial;&quot;&gt;+ append(Encryptor* pEncr): void&lt;/span&gt;&lt;br&gt;&lt;/div&gt;&lt;div&gt;+ clone(): Encryptor*&amp;nbsp;&lt;/div&gt;&lt;div&gt;+ cloneInverse(): Encryptor*&amp;nbsp;&lt;/div&gt;&lt;div&gt;+ encode(char c): char&lt;/div&gt;&lt;div&gt;+ decode(char c): char&amp;nbsp;&lt;/div&gt;&lt;div&gt;&lt;br&gt;&lt;/div&gt;" style="text;strokeColor=none;fillColor=none;align=left;verticalAlign=top;spacingLeft=4;spacingRight=4;overflow=hidden;rotatable=0;points=[[0,0.5],[1,0.5]];portConstraint=eastwest;whiteSpace=wrap;html=1;" parent="ww80NGI2TLnyyEXgtIBK-58" vertex="1">
          <mxGeometry y="68" width="250" height="132" as="geometry" />
        </mxCell>
        <mxCell id="ww80NGI2TLnyyEXgtIBK-62" value="" style="endArrow=block;dashed=1;endFill=0;endSize=12;html=1;rounded=0;" parent="1" source="ww80NGI2TLnyyEXgtIBK-58" target="ww80NGI2TLnyyEXgtIBK-40" edge="1">
          <mxGeometry width="160" relative="1" as="geometry">
            <mxPoint x="152" y="680" as="sourcePoint" />
            <mxPoint x="312" y="680" as="targetPoint" />
          </mxGeometry>
        </mxCell>
        <mxCell id="ww80NGI2TLnyyEXgtIBK-66" value="" style="endArrow=none;html=1;edgeStyle=orthogonalEdgeStyle;rounded=0;" parent="1" source="ww80NGI2TLnyyEXgtIBK-40" target="ww80NGI2TLnyyEXgtIBK-35" edge="1">
          <mxGeometry relative="1" as="geometry">
            <mxPoint x="432" y="880" as="sourcePoint" />
            <mxPoint x="592" y="880" as="targetPoint" />
            <Array as="points">
              <mxPoint x="762" y="300" />
            </Array>
          </mxGeometry>
        </mxCell>
        <mxCell id="ww80NGI2TLnyyEXgtIBK-67" value="encrypts" style="edgeLabel;resizable=0;html=1;align=left;verticalAlign=bottom;" parent="ww80NGI2TLnyyEXgtIBK-66" connectable="0" vertex="1">
          <mxGeometry x="-1" relative="1" as="geometry">
            <mxPoint x="2" y="-1" as="offset" />
          </mxGeometry>
        </mxCell>
        <mxCell id="ww80NGI2TLnyyEXgtIBK-68" value="is encrypted by" style="edgeLabel;resizable=0;html=1;align=right;verticalAlign=bottom;" parent="ww80NGI2TLnyyEXgtIBK-66" connectable="0" vertex="1">
          <mxGeometry x="1" relative="1" as="geometry">
            <mxPoint x="80" y="-10" as="offset" />
          </mxGeometry>
        </mxCell>
        <mxCell id="ww80NGI2TLnyyEXgtIBK-73" value="ListEncryptor::Node" style="swimlane;fontStyle=1;align=center;verticalAlign=top;childLayout=stackLayout;horizontal=1;startSize=26;horizontalStack=0;resizeParent=1;resizeParentMax=0;resizeLast=0;collapsible=1;marginBottom=0;whiteSpace=wrap;html=1;" parent="1" vertex="1">
          <mxGeometry x="397" y="850" width="160" height="120" as="geometry" />
        </mxCell>
        <mxCell id="ww80NGI2TLnyyEXgtIBK-74" value="+ pEncr: Encryptor*&lt;div&gt;+ next: Node*&lt;/div&gt;&lt;div&gt;+ prev: Node*&lt;/div&gt;&lt;div&gt;&lt;br&gt;&lt;/div&gt;" style="text;strokeColor=none;fillColor=none;align=left;verticalAlign=top;spacingLeft=4;spacingRight=4;overflow=hidden;rotatable=0;points=[[0,0.5],[1,0.5]];portConstraint=eastwest;whiteSpace=wrap;html=1;" parent="ww80NGI2TLnyyEXgtIBK-73" vertex="1">
          <mxGeometry y="26" width="160" height="54" as="geometry" />
        </mxCell>
        <mxCell id="ww80NGI2TLnyyEXgtIBK-75" value="" style="line;strokeWidth=1;fillColor=none;align=left;verticalAlign=middle;spacingTop=-1;spacingLeft=3;spacingRight=3;rotatable=0;labelPosition=right;points=[];portConstraint=eastwest;strokeColor=inherit;" parent="ww80NGI2TLnyyEXgtIBK-73" vertex="1">
          <mxGeometry y="80" width="160" height="8" as="geometry" />
        </mxCell>
        <mxCell id="ww80NGI2TLnyyEXgtIBK-76" value="&lt;div&gt;+ ~Node()&lt;/div&gt;" style="text;strokeColor=none;fillColor=none;align=left;verticalAlign=top;spacingLeft=4;spacingRight=4;overflow=hidden;rotatable=0;points=[[0,0.5],[1,0.5]];portConstraint=eastwest;whiteSpace=wrap;html=1;" parent="ww80NGI2TLnyyEXgtIBK-73" vertex="1">
          <mxGeometry y="88" width="160" height="32" as="geometry" />
        </mxCell>
        <mxCell id="yxS8Rb1M3pRRdxjplUIk-1" value="" style="endArrow=diamondThin;endFill=1;endSize=24;html=1;rounded=0;" edge="1" parent="1" source="ww80NGI2TLnyyEXgtIBK-73" target="ww80NGI2TLnyyEXgtIBK-58">
          <mxGeometry width="160" relative="1" as="geometry">
            <mxPoint x="92" y="900" as="sourcePoint" />
            <mxPoint x="252" y="900" as="targetPoint" />
          </mxGeometry>
        </mxCell>
        <mxCell id="yxS8Rb1M3pRRdxjplUIk-2" value="" style="endArrow=diamondThin;endFill=0;endSize=24;html=1;rounded=0;" edge="1" parent="1" source="ww80NGI2TLnyyEXgtIBK-32" target="ww80NGI2TLnyyEXgtIBK-35">
          <mxGeometry width="160" relative="1" as="geometry">
            <mxPoint x="1142" y="840" as="sourcePoint" />
            <mxPoint x="1302" y="840" as="targetPoint" />
          </mxGeometry>
        </mxCell>
      </root>
    </mxGraphModel>
  </diagram>
</mxfile>
